<mxfile host="app.diagrams.net" modified="2023-05-21T13:58:52.460Z" agent="Mozilla/5.0 (Macintosh; Intel Mac OS X 10_15_7) AppleWebKit/537.36 (KHTML, like Gecko) Chrome/113.0.0.0 Safari/537.36" version="21.3.2" etag="PUfbuOsPk3Ru48ZX76Td" type="github">
  <diagram name="Page-1" id="JJQI5x5z_4RIEQq7KYnE">
    <mxGraphModel>
      <root>
        <mxCell id="0" />
        <mxCell id="1" parent="0" />
      </root>
    </mxGraphModel>
  </diagram>
</mxfile>
